# xmcd CD database file
#
# Track frame offsets:
#	150
#	24560
#	46239
#	70855
#	88219
#	94768
#	113909
#	140105
#	149668
#	163684
#	172476
#
# Disc length: 2532 seconds
#
# Revision: 0
# Processed by: cddbd v1.5.1PL2 Copyright (c) Steve Scherf et al.
# Submitted via: CDex 1.70beta2
#
DISCID=a809e20b
DTITLE=Eric Hervé - Impressions
DYEAR=1999
DGENRE=Jazz
TTITLE0=Rêverie
TTITLE1=Labyrinthe
TTITLE2=Nuages - Largo
TTITLE3=Nuages - Allegro
TTITLE4=Interlude
TTITLE5=Conversation - mouv I
TTITLE6=Conversation - mouv II
TTITLE7=Conversation - mouv III
TTITLE8=Conversation - mouv IV
TTITLE9=Nostalgie
TTITLE10=Brazilian Chorus
EXTD=YEAR: 1999
EXTT0=
EXTT1=
EXTT2=
EXTT3=
EXTT4=
EXTT5=
EXTT6=
EXTT7=
EXTT8=
EXTT9=
EXTT10=
PLAYORDER=
